<?xml version="1.0" encoding="UTF-8" standalone="no"?>
<svg xmlns="http://www.w3.org/2000/svg"
     width="1000.0"
     height="1000.0"
     viewBox="0 0 1000.0 1000.0" >
<path style="fill:none;stroke:#000000;stroke-width:1px" id="id1n23" d="m 0,-50 0,-50 0,-50 0,-50 0,-50 0,-50 0,-50 0,-50 0,-50 0,-50 z" />
<path style="fill:none;stroke:#000000;stroke-width:1px" id="id1n22" d="m -50,-50 -50,-50 -50,-50 -50,-50 -50,-50 -50,-50 -50,-50 -50,-50 -50,-50 -50,-50 z" />
<path style="fill:none;stroke:#000000;stroke-width:1px" id="id1n21" d="m -50,0 -50,0 -50,0 -50,0 -50,0 -50,0 -50,0 -50,0 -50,0 -50,0 z" />
<path style="fill:none;stroke:#000000;stroke-width:1px" id="id1n20" d="m -50,50 -50,50 -50,50 -50,50 -50,50 -50,50 -50,50 -50,50 -50,50 -50,50 z" />
<path style="fill:none;stroke:#000000;stroke-width:1px" id="id1n19" d="m 0,50 0,50 0,50 0,50 0,50 0,50 0,50 0,50 0,50 0,50 z" />
<path style="fill:none;stroke:#000000;stroke-width:1px" id="id1n18" d="m 50,50 50,50 50,50 50,50 50,50 50,50 50,50 50,50 50,50 50,50 z" />
<path style="fill:none;stroke:#000000;stroke-width:1px" id="id1n17" d="m 50,0 50,0 50,0 50,0 50,0 50,0 50,0 50,0 50,0 50,0 z" />
<path style="fill:none;stroke:#000000;stroke-width:1px" id="id1n16" d="m 100,100 100,100 100,100 100,100 100,100 100,100 100,100 100,100 100,100 100,100 z" />
<path style="fill:none;stroke:#000000;stroke-width:1px" id="id1n15" d="m 150,-50 300,-50 450,-50 600,-50 750,-50 900,-50 1050,-50 1200,-50 1350,-50 1500,-50 0,-50 0,-50 0,-50 0,-50 0,-50 0,-50 0,-50 0,-50 0,-50 0,-50 z" />
<path style="fill:none;stroke:#000000;stroke-width:1px" id="id1n14" d="m 100,-50 250,-50 400,-50 550,-50 700,-50 850,-50 1000,-50 1150,-50 1300,-50 1450,-50 -50,-50 -50,-50 -50,-50 -50,-50 -50,-50 -50,-50 -50,-50 -50,-50 -50,-50 -50,-50 z" />
<path style="fill:none;stroke:#000000;stroke-width:1px" id="id1n13" d="m 100,0 250,0 400,0 550,0 700,0 850,0 1000,0 1150,0 1300,0 1450,0 -50,0 -50,0 -50,0 -50,0 -50,0 -50,0 -50,0 -50,0 -50,0 -50,0 z" />
<path style="fill:none;stroke:#000000;stroke-width:1px" id="id1n12" d="m 100,50 250,50 400,50 550,50 700,50 850,50 1000,50 1150,50 1300,50 1450,50 -50,50 -50,50 -50,50 -50,50 -50,50 -50,50 -50,50 -50,50 -50,50 -50,50 z" />
<path style="fill:none;stroke:#000000;stroke-width:1px" id="id1n11" d="m 150,50 300,50 450,50 600,50 750,50 900,50 1050,50 1200,50 1350,50 1500,50 0,50 0,50 0,50 0,50 0,50 0,50 0,50 0,50 0,50 0,50 z" />
<path style="fill:none;stroke:#000000;stroke-width:1px" id="id1n10" d="m 200,50 350,50 500,50 650,50 800,50 950,50 1100,50 1250,50 1400,50 1550,50 50,50 50,50 50,50 50,50 50,50 50,50 50,50 50,50 50,50 50,50 z" />
<path style="fill:none;stroke:#000000;stroke-width:1px" id="id1n9" d="m 200,0 350,0 500,0 650,0 800,0 950,0 1100,0 1250,0 1400,0 1550,0 50,0 50,0 50,0 50,0 50,0 50,0 50,0 50,0 50,0 50,0 z" />
<path style="fill:none;stroke:#000000;stroke-width:1px" id="id1n8" d="m 250,100 400,100 550,100 700,100 850,100 1000,100 1150,100 1300,100 1450,100 1600,100 100,100 100,100 100,100 100,100 100,100 100,100 100,100 100,100 100,100 100,100 z" />
<path style="fill:none;stroke:#000000;stroke-width:1px" id="id1n7" d="m 150,-50 300,-50 450,-50 600,-50 750,-50 900,-50 1050,-50 1200,-50 1350,-50 1500,-50 150,-50 300,-50 450,-50 600,-50 750,-50 900,-50 1050,-50 1200,-50 1350,-50 1500,-50 0,-50 0,-50 0,-50 0,-50 0,-50 0,-50 0,-50 0,-50 0,-50 0,-50 z" />
<path style="fill:none;stroke:#000000;stroke-width:1px" id="id1n6" d="m 100,-50 250,-50 400,-50 550,-50 700,-50 850,-50 1000,-50 1150,-50 1300,-50 1450,-50 100,-50 250,-50 400,-50 550,-50 700,-50 850,-50 1000,-50 1150,-50 1300,-50 1450,-50 -50,-50 -50,-50 -50,-50 -50,-50 -50,-50 -50,-50 -50,-50 -50,-50 -50,-50 -50,-50 z" />
<path style="fill:none;stroke:#000000;stroke-width:1px" id="id1n5" d="m 100,0 250,0 400,0 550,0 700,0 850,0 1000,0 1150,0 1300,0 1450,0 100,0 250,0 400,0 550,0 700,0 850,0 1000,0 1150,0 1300,0 1450,0 -50,0 -50,0 -50,0 -50,0 -50,0 -50,0 -50,0 -50,0 -50,0 -50,0 z" />
<path style="fill:none;stroke:#000000;stroke-width:1px" id="id1n4" d="m 100,50 250,50 400,50 550,50 700,50 850,50 1000,50 1150,50 1300,50 1450,50 100,50 250,50 400,50 550,50 700,50 850,50 1000,50 1150,50 1300,50 1450,50 -50,50 -50,50 -50,50 -50,50 -50,50 -50,50 -50,50 -50,50 -50,50 -50,50 z" />
<path style="fill:none;stroke:#000000;stroke-width:1px" id="id1n3" d="m 150,50 300,50 450,50 600,50 750,50 900,50 1050,50 1200,50 1350,50 1500,50 150,50 300,50 450,50 600,50 750,50 900,50 1050,50 1200,50 1350,50 1500,50 0,50 0,50 0,50 0,50 0,50 0,50 0,50 0,50 0,50 0,50 z" />
<path style="fill:none;stroke:#000000;stroke-width:1px" id="id1n2" d="m 200,50 350,50 500,50 650,50 800,50 950,50 1100,50 1250,50 1400,50 1550,50 200,50 350,50 500,50 650,50 800,50 950,50 1100,50 1250,50 1400,50 1550,50 50,50 50,50 50,50 50,50 50,50 50,50 50,50 50,50 50,50 50,50 z" />
<path style="fill:none;stroke:#000000;stroke-width:1px" id="id1n1" d="m 200,0 350,0 500,0 650,0 800,0 950,0 1100,0 1250,0 1400,0 1550,0 200,0 350,0 500,0 650,0 800,0 950,0 1100,0 1250,0 1400,0 1550,0 50,0 50,0 50,0 50,0 50,0 50,0 50,0 50,0 50,0 50,0 z" />
<path style="fill:none;stroke:#000000;stroke-width:1px" id="id1n0" d="m 250,100 400,100 550,100 700,100 850,100 1000,100 1150,100 1300,100 1450,100 1600,100 250,100 400,100 550,100 700,100 850,100 1000,100 1150,100 1300,100 1450,100 1600,100 250,100 400,100 550,100 700,100 850,100 1000,100 1150,100 1300,100 1450,100 1600,100 z" />
<path style="fill:none;stroke:#000000;stroke-width:1px" id="id1" d="m 100,100 50,0 50,50 0,50 -50,50 -50,0 -50,-50 0,-50 100,100 50,0 50,50 0,50 -50,50 -50,0 -50,-50 0,-50 100,100 50,0 50,50 0,50 -50,50 -50,0 -50,-50 0,-50 z" />
</svg>
